<?xml version="1.0" standalone="no"?>
<!DOCTYPE svg PUBLIC "-//W3C//DTD SVG 20010904//EN"
 "http://www.w3.org/TR/2001/REC-SVG-20010904/DTD/svg10.dtd">
<svg version="1.0" xmlns="http://www.w3.org/2000/svg"
 width="100.000000pt" height="100.000000pt" viewBox="0 0 100.000000 100.000000"
 preserveAspectRatio="xMidYMid meet">
<metadata>
Created by potrace 1.11, written by Peter Selinger 2001-2013
</metadata>
<g transform="translate(0.000000,100.000000) scale(0.100000,-0.100000)"
fill="#000000" stroke="none">
<path d="M47 852 c-15 -17 -17 -56 -17 -354 0 -328 0 -335 21 -354 20 -18 42
-19 449 -19 407 0 429 1 449 19 21 19 21 26 21 356 0 314 -1 338 -18 353 -17
15 -63 17 -454 17 -409 0 -436 -1 -451 -18z m320 -94 c21 -20 22 -23 6 -40
-22 -24 -118 -25 -145 -1 -18 16 -18 17 4 40 30 32 102 32 135 1z m400 0 c21
-20 22 -23 6 -40 -22 -24 -118 -25 -145 -1 -18 16 -18 17 4 40 30 32 102 32
135 1z m-555 -65 c16 -14 18 -34 18 -193 0 -164 -1 -178 -20 -195 -19 -17 -21
-17 -40 0 -19 17 -20 31 -20 193 0 149 2 178 17 194 20 22 22 22 45 1z m220 0
c16 -14 18 -34 18 -193 0 -164 -1 -178 -20 -195 -19 -17 -21 -17 -40 0 -19 17
-20 31 -20 193 0 149 2 178 17 194 20 22 22 22 45 1z m180 0 c16 -14 18 -34
18 -193 0 -164 -1 -178 -20 -195 -19 -17 -21 -17 -40 0 -19 17 -20 31 -20 193
0 149 2 178 17 194 20 22 22 22 45 1z m220 0 c16 -14 18 -34 18 -193 0 -164
-1 -178 -20 -195 -19 -17 -21 -17 -40 0 -19 17 -20 31 -20 193 0 149 2 178 17
194 20 22 22 22 45 1z m-460 -410 c18 -16 18 -17 -4 -40 -30 -32 -102 -32
-135 -1 -21 20 -22 23 -6 40 22 24 118 25 145 1z m400 0 c18 -16 18 -17 -4
-40 -30 -32 -102 -32 -135 -1 -21 20 -22 23 -6 40 22 24 118 25 145 1z"/>
</g>
</svg>
